<?xml version="1.0" encoding="UTF-8" standalone="no"?>
<!-- Created with Inkscape (http://www.inkscape.org/) -->

<svg
   xmlns:dc="http://purl.org/dc/elements/1.1/"
   xmlns:cc="http://creativecommons.org/ns#"
   xmlns:rdf="http://www.w3.org/1999/02/22-rdf-syntax-ns#"
   xmlns:svg="http://www.w3.org/2000/svg"
   xmlns="http://www.w3.org/2000/svg"
   xmlns:sodipodi="http://sodipodi.sourceforge.net/DTD/sodipodi-0.dtd"
   xmlns:inkscape="http://www.inkscape.org/namespaces/inkscape"
   width="64px"
   height="64px"
   id="svg2985"
   version="1.1"
   inkscape:version="0.48.5 r10040"
   sodipodi:docname="nm.svg">
  <defs
     id="defs2987" />
  <sodipodi:namedview
     id="base"
     pagecolor="#ffffff"
     bordercolor="#666666"
     borderopacity="1.0"
     inkscape:pageopacity="0.0"
     inkscape:pageshadow="2"
     inkscape:zoom="11.862508"
     inkscape:cx="28.407504"
     inkscape:cy="45.16114"
     inkscape:current-layer="layer1"
     showgrid="true"
     inkscape:document-units="px"
     inkscape:grid-bbox="true"
     inkscape:snap-bbox="true"
     inkscape:bbox-paths="true"
     inkscape:bbox-nodes="true"
     inkscape:snap-bbox-edge-midpoints="true"
     inkscape:snap-bbox-midpoints="true"
     inkscape:object-paths="true"
     inkscape:snap-intersection-paths="true"
     inkscape:object-nodes="true"
     inkscape:snap-smooth-nodes="true"
     inkscape:snap-midpoints="true"
     inkscape:snap-object-midpoints="false"
     inkscape:snap-center="false"
     inkscape:snap-page="true"
     inkscape:window-width="1600"
     inkscape:window-height="843"
     inkscape:window-x="0"
     inkscape:window-y="28"
     inkscape:window-maximized="1" />
  <metadata
     id="metadata2990">
    <rdf:RDF>
      <cc:Work
         rdf:about="">
        <dc:format>image/svg+xml</dc:format>
        <dc:type
           rdf:resource="http://purl.org/dc/dcmitype/StillImage" />
        <dc:title></dc:title>
      </cc:Work>
    </rdf:RDF>
  </metadata>
  <g
     id="layer1"
     inkscape:label="Layer 1"
     inkscape:groupmode="layer">
    <rect
       style="fill:#b0e0e6;fill-opacity:1;stroke:none"
       id="rect2993"
       width="64"
       height="64"
       x="0"
       y="0"
       ry="5.1598663" />
    <path
       style="fill:#008500;stroke:#000000;stroke-width:1px;stroke-linecap:butt;stroke-linejoin:round;stroke-opacity:1;fill-opacity:0.80676329000000002"
       d="M 4,44 60,44 32,16 z"
       id="path3848"
       inkscape:connector-curvature="0"
       sodipodi:nodetypes="cccc" />
    <path
       style="fill:#ffffff;stroke:#000000;stroke-width:1px;stroke-linecap:butt;stroke-linejoin:round;stroke-opacity:1"
       d="m 20,28 4,4 4,-4 4,4 4,-4 4,4 4,-4 L 32,16 20,28"
       id="path3850"
       inkscape:connector-curvature="0" />
  </g>
  <g
     inkscape:groupmode="layer"
     id="layer2"
     inkscape:label="grid"
     style="opacity:0.15929206;display:none"
     sodipodi:insensitive="true">
    <path
       d="M 0,0 0,64 M 4,0 4,64 M 8,0 8,64 M 12,0 12,64 M 16,0 16,64 M 20,0 20,64 M 24,0 24,64 M 28,0 28,64 M 32,0 32,64 M 36,0 36,64 M 40,0 40,64 M 44,0 44,64 M 48,0 48,64 M 52,0 52,64 M 56,0 56,64 M 60,0 60,64 M 64,0 64,64 M 0,0 64,0 M 0,4 64,4 M 0,8 64,8 m -64,4 64,0 m -64,4 64,0 m -64,4 64,0 m -64,4 64,0 m -64,4 64,0 m -64,4 64,0 m -64,4 64,0 m -64,4 64,0 m -64,4 64,0 m -64,4 64,0 m -64,4 64,0 m -64,4 64,0 m -64,4 64,0 m -64,4 64,0"
       style="fill:none;stroke:#000000;stroke-width:0.3pt;stroke-linecap:butt;stroke-linejoin:miter;stroke-opacity:1"
       id="path3846"
       inkscape:connector-curvature="0" />
  </g>
</svg>
